<?xml version="1.0" encoding="utf-8"?>
<?xml-stylesheet type="text/xsl" href="rss1.xsl"?>
<rss version="2.0" xmlns:atom="http://www.w3.org/2005/Atom" xmlns:content="http://purl.org/rss/1.0/modules/content/" xmlns:dc="http://purl.org/dc/elements/1.1/" xmlns:media="http://search.yahoo.com/mrss/">
<channel>
 <title>Getty</title>
 <link>http://www.gettyimg.com/</link>
 <atom:link href="http://www.gettyimg.com/" rel="self" type="application/rss+xml" />

 
                <item>
                <title><![CDATA[【Singles (lossless)】PACK - Loïs Andréa - Vivre,Laisse Aller and All We Need [CDS WAV]]]></title>
                <link><![CDATA[https://sharemania.us/threads/lo%C3%AFs-andr%C3%A9a-vivre-laisse-aller-and-all-we-need-cds-wav.228609/]]></link>
                <description><![CDATA[<article>
<blockquote class="messageText SelectQuoteContainer ugc baseHtml">
1999 - Loïs Andréa - Vivre [CDS WAV]<br>
<a href="https://www.discogs.com/release/2465609-Lo%C3%AFs-Andr%C3%A9a-Vivre" target="_blank" class="externalLink" rel="nofollow">https://www.discogs.com/release/2465609-Loïs-Andréa-Vivre</a><br>
<a href="https://www.mediafire.com/file/oqla2kgzt1sved8/1999+-+Loïs+Andréa+-+Vivre+[CDS+WAV].7z/file" target="_blank" class="externalLink" rel="nofollow">https://www.mediafire.com/file/oqla2kgzt1sved8/1999+-+Loïs+Andréa+-+Vivre+[CDS+WAV].7z/file</a><br>
<br>
2002 - Loïs Andréa - Laisse Aller [CDS PROMO WAV]<br>
<a href="https://www.discogs.com/release/2465526-Lo%C3%AFs-Andrea-Laisse-Aller" target="_blank" class="externalLink" rel="nofollow">https://www.discogs.com/release/2465526-Loïs-Andrea-Laisse-Aller</a><br>
<a href="https://www.mediafire.com/file/zhmyy5ufaikuq5m/2002+-+Loïs+Andréa+-+Laisse+Aller+[CDS+PROMO+WAV].7z/file" target="_blank" class="externalLink" rel="nofollow">https://www.mediafire.com/file/zhmy...Andréa+-+Laisse+Aller+[CDS+PROMO+WAV].7z/file</a><br>
<br>
2008 - DJ Abdel - Loïs Andréa - Big Ali – All We Need [CDS WAV]<br>
<a href="https://www.discogs.com/release/5816861-DJ-Abdel-Lo%C3%AFs-Andr%C3%A9a-Big-Ali-All-We-Need" target="_blank" class="externalLink" rel="nofollow">https://www.discogs.com/release/5816861-DJ-Abdel-Loïs-Andréa-Big-Ali-All-We-Need</a><br>
<a href="https://www.mediafire.com/file/jrww9n1qfsbcvrf/2008+-+DJ+Abdel+-+Loïs+Andréa+-+Big+Ali+–+All+We+Need+[CDS+WAV].7z/file" target="_blank" class="externalLink" rel="nofollow">https://www.mediafire.com/file/jrww...réa+-+Big+Ali+–+All+We+Need+[CDS+WAV].7z/file</a><br>
<img src="https://i.discogs.com/u7WQQjuhp5P1x_yDeFtFxedFMU9vt72co-ewPR8qzaU/rs:fit/g:sm/q:90/h:600/w:600/czM6Ly9kaXNjb2dz/LWRhdGFiYXNlLWlt/YWdlcy9SLTI0NjU2/MDktMTQyNTg1ODQ2/MS0yNTYwLmpwZWc.jpeg" class="bbCodeImage LbImage" alt="[​IMG]" data-url="https://i.discogs.com/u7WQQjuhp5P1x_yDeFtFxedFMU9vt72co-ewPR8qzaU/rs:fit/g:sm/q:90/h:600/w:600/czM6Ly9kaXNjb2dz/LWRhdGFiYXNlLWlt/YWdlcy9SLTI0NjU2/MDktMTQyNTg1ODQ2/MS0yNTYwLmpwZWc.jpeg" style=""> <img src="https://i.discogs.com/hRpPc1gMXtKcnPqK4krEhr6pYx0ykgeTah5Mn8sBb2U/rs:fit/g:sm/q:90/h:600/w:600/czM6Ly9kaXNjb2dz/LWRhdGFiYXNlLWlt/YWdlcy9SLTI0NjU1/MjYtMTQyNTg1ODUz/NC03MTgwLmpwZWc.jpeg" class="bbCodeImage LbImage" alt="[​IMG]" data-url="https://i.discogs.com/hRpPc1gMXtKcnPqK4krEhr6pYx0ykgeTah5Mn8sBb2U/rs:fit/g:sm/q:90/h:600/w:600/czM6Ly9kaXNjb2dz/LWRhdGFiYXNlLWlt/YWdlcy9SLTI0NjU1/MjYtMTQyNTg1ODUz/NC03MTgwLmpwZWc.jpeg" style=""> <img src="https://i.discogs.com/2yqs_tt5lcBCPvxSSFkRU5nfACbBKpRinovtMZl5Mns/rs:fit/g:sm/q:90/h:600/w:600/czM6Ly9kaXNjb2dz/LWRhdGFiYXNlLWlt/YWdlcy9SLTU4MTY4/NjEtMTQwMzQ5MTIw/OS01NzQ2LmpwZWc.jpeg" class="bbCodeImage LbImage" alt="[​IMG]" data-url="https://i.discogs.com/2yqs_tt5lcBCPvxSSFkRU5nfACbBKpRinovtMZl5Mns/rs:fit/g:sm/q:90/h:600/w:600/czM6Ly9kaXNjb2dz/LWRhdGFiYXNlLWlt/YWdlcy9SLTU4MTY4/NjEtMTQwMzQ5MTIw/OS01NzQ2LmpwZWc.jpeg" style="">
<div class="messageTextEndMarker">&nbsp;</div>
</blockquote>
</article>]]></description>
                <author><![CDATA[Francineudo]]></author>
                </item>

                
                <item>
                <title><![CDATA[【UPSCALED】Taylor Swift - Wildest Dreams (Taylor's Version) [4K.AI.UPSCALE.x265.10bit.Dolby-Atmos]]]></title>
                <link><![CDATA[https://sharemania.us/threads/taylor-swift-wildest-dreams-taylors-version-4k-ai-upscale-x265-10bit-dolby-atmos.228610/]]></link>
                <description><![CDATA[<article>
<blockquote class="messageText SelectQuoteContainer ugc baseHtml">
<img src="https://i.imgur.com/mCrND54.jpg" class="bbCodeImage LbImage" alt="[​IMG]" data-url="https://i.imgur.com/mCrND54.jpg" style=""><br>
<img src="https://i.imgur.com/PLezdJx.jpg" class="bbCodeImage LbImage" alt="[​IMG]" data-url="https://i.imgur.com/PLezdJx.jpg" style=""><br>
<img src="https://i.imgur.com/4ncmPE5.jpg" class="bbCodeImage LbImage" alt="[​IMG]" data-url="https://i.imgur.com/4ncmPE5.jpg" style=""><br>
<br>
<div class="bbCodeBlock bbCodeCode">
<div class="type">Code:</div>
<pre>General
Format                                   : Matroska
Format version                           : Version 4
File size                                : 503 MiB
Duration                                 : 3 min 54 s
Overall bit rate                         : 18.0 Mb/s
Frame rate                               : 23.976 FPS

Video
ID                                       : 1
Format                                   : HEVC
Format/Info                              : High Efficiency Video Coding
Format profile                           : Main 10@L5.1@High
Codec ID                                 : V_MPEGH/ISO/HEVC
Duration                                 : 3 min 54 s
Bit rate                                 : 17.2 Mb/s
Width                                    : 3 840 pixels
Height                                   : 1 620 pixels
Display aspect ratio                     : 2.40:1
Frame rate mode                          : Constant
Frame rate                               : 23.976 (24000/1001) FPS
Color space                              : YUV
Chroma subsampling                       : 4:2:0 (Type 0)
Bit depth                                : 10 bits
Bits/(Pixel*Frame)                       : 0.115
Stream size                              : 481 MiB (96%)
Default                                  : Yes
Forced                                   : No
Color range                              : Limited
Color primaries                          : BT.709
Transfer characteristics                 : BT.709
Matrix coefficients                      : BT.709

Audio
ID                                       : 2
Format                                   : AC-3
Format/Info                              : Audio Coding 3
Commercial name                          : Dolby Digital
Codec ID                                 : A_AC3
Duration                                 : 3 min 54 s
Bit rate mode                            : Constant
Bit rate                                 : 448 kb/s
Channel(s)                               : 6 channels
Channel layout                           : L R C LFE Ls Rs
Sampling rate                            : 48.0 kHz
Frame rate                               : 31.250 FPS (1536 SPF)
Compression mode                         : Lossy
Delay relative to video                  : -5 ms
Stream size                              : 12.5 MiB (2%)
Title                                    : Surround
Service kind                             : Complete Main
Default                                  : Yes
Forced                                   : No</pre>
</div><div style="text-align: center">
<div class="bbCodeBlock bbCodeVfcHH HiddenContent">
<div class="attribution type">Hidden Content:</div>
<blockquote>You must reply before you can see the hidden data contained here.</blockquote>
</div></div>
<div class="messageTextEndMarker">&nbsp;</div>
</blockquote>
</article>]]></description>
                <author><![CDATA[Librious]]></author>
                </item>

                
                <item>
                <title><![CDATA[【YOUTUBE】WEB-RiP - Enrique Iglesias, Wisin &amp; Yandel - Lloro Por Ti (Remix) (YOUTUBE-1080P-VP9-LK72) [Enhanced]]]></title>
                <link><![CDATA[https://sharemania.us/threads/enrique-iglesias-wisin-yandel-lloro-por-ti-remix-youtube-1080p-vp9-lk72-enhanced.228608/]]></link>
                <description><![CDATA[<article>
<blockquote class="messageText SelectQuoteContainer ugc baseHtml">
<div style="text-align: center"><img src="https://i.imgur.com/6vClTyi.jpg" class="bbCodeImage LbImage" alt="[​IMG]" data-url="https://i.imgur.com/6vClTyi.jpg" style=""> <br>
<div class="bbCodeBlock bbCodeVfcHH HiddenContent">
<div class="attribution type">Hidden Content:</div>
<blockquote>You must reply before you can see the hidden data contained here.</blockquote>
</div></div>
<div class="messageTextEndMarker">&nbsp;</div>
</blockquote>
</article>]]></description>
                <author><![CDATA[luke72]]></author>
                </item>

                </channel></rss>